<?xml version="1.0" encoding="UTF-8"?>
<svg version="1.1" xmlns="http://www.w3.org/2000/svg" width="500" height="500">
<path d="M0 0 C1.31097656 0.07992187 2.62195313 0.15984375 3.97265625 0.2421875 C21.81870807 1.61949481 36.91436144 7.53907547 52 17 C52.58845703 17.36061523 53.17691406 17.72123047 53.78320312 18.09277344 C55.22631095 19.00505388 56.61907535 19.99607625 58 21 C58 21.66 58 22.32 58 23 C58.66 23 59.32 23 60 23 C60 23.66 60 24.32 60 25 C60.66 25 61.32 25 62 25 C62 25.66 62 26.32 62 27 C62.8353125 27.3403125 62.8353125 27.3403125 63.6875 27.6875 C66.66159588 29.37550036 68.72008865 31.46676517 71 34 C71 34.66 71 35.32 71 36 C71.66 36 72.32 36 73 36 C74.51544143 37.90642531 75.89241058 39.79735017 77.25 41.8125 C77.65114014 42.40200439 78.05228027 42.99150879 78.46557617 43.59887695 C94.11039515 66.91401608 99.75774888 93.18491145 95.3046875 121.08203125 C91.99606772 137.80924922 84.14168101 153.01562551 72.40625 165.3203125 C69.79646907 170.29339506 71.43771711 175.08356464 72.93994141 180.20361328 C74.50952178 185.05795049 76.17154202 189.87755311 77.84960938 194.6953125 C80.11161437 201.41960343 81.54333808 206.89834174 81 214 C73.91310083 216.03183951 69.44802404 213.32684248 63.125 210.0625 C61.08098009 209.04506865 59.03670681 208.02814618 56.9921875 207.01171875 C55.98381836 206.50302246 54.97544922 205.99432617 53.93652344 205.47021484 C49.73979987 203.36906176 45.50020042 201.36514346 41.25 199.375 C40.55406738 199.04508057 39.85813477 198.71516113 39.14111328 198.37524414 C36.44973893 197.10550403 33.82645678 195.94215226 31 195 C29.31389375 195.61584732 27.65063043 196.29456297 26 197 C5.99252877 203.03749683 -15.00242723 203.03298117 -35 197 C-36.24007812 196.63777344 -37.48015625 196.27554688 -38.7578125 195.90234375 C-47.18170573 193.17152122 -54.91163951 189.3339324 -62 184 C-62 183.34 -62 182.68 -62 182 C-62.598125 181.87625 -63.19625 181.7525 -63.8125 181.625 C-66 181 -66 181 -69 179 C-69 178.34 -69 177.68 -69 177 C-69.87978516 176.61134766 -69.87978516 176.61134766 -70.77734375 176.21484375 C-73.15597158 174.91475016 -74.68918393 173.51125162 -76.5625 171.5625 C-77.43068359 170.66724609 -77.43068359 170.66724609 -78.31640625 169.75390625 C-78.87199219 169.17511719 -79.42757812 168.59632813 -80 168 C-80.9977247 166.99772986 -81.99695588 165.99694659 -83 165 C-83 165.66 -83 166.32 -83 167 C-83.66 167 -84.32 167 -85 167 C-85.20625 167.53625 -85.4125 168.0725 -85.625 168.625 C-87.53250426 171.91978009 -90.04819384 174.59363628 -93 177 C-93.66 177 -94.32 177 -95 177 C-95 177.66 -95 178.32 -95 179 C-96.34179688 180.17333984 -96.34179688 180.17333984 -98.21875 181.4609375 C-98.90453125 181.93273437 -99.5903125 182.40453125 -100.296875 182.890625 C-101.02390625 183.38046875 -101.7509375 183.8703125 -102.5 184.375 C-103.19609375 184.85710937 -103.8921875 185.33921875 -104.609375 185.8359375 C-111.63096527 190.62102124 -118.67653818 194.17408287 -126.8125 196.625 C-127.51189697 196.83737305 -128.21129395 197.04974609 -128.93188477 197.26855469 C-134.57895753 198.94416685 -140.14010144 200.3055513 -146 201 C-147.83884766 201.21849609 -147.83884766 201.21849609 -149.71484375 201.44140625 C-162.92515509 202.73206885 -176.56326276 201.5160419 -189.19140625 197.328125 C-197.24802993 194.84813791 -203.04499078 197.62940834 -210.25 201.1875 C-211.08539307 201.59025146 -211.92078613 201.99300293 -212.78149414 202.40795898 C-218.26657083 205.07475128 -223.62228906 207.89506366 -228.87109375 211.00390625 C-231 212 -231 212 -235 212 C-235 212.66 -235 213.32 -235 214 C-242.75 215.125 -242.75 215.125 -245 214 C-247.0440955 208.95047696 -244.88682947 204.12256552 -243.375 199.1875 C-243.10228271 198.26130859 -242.82956543 197.33511719 -242.54858398 196.38085938 C-241.24335571 191.97935852 -239.88208418 187.59986064 -238.44921875 183.23828125 C-238.09754639 182.15800659 -238.09754639 182.15800659 -237.73876953 181.0559082 C-237.10073102 179.11622505 -236.44354074 177.18287189 -235.78515625 175.25 C-234.96896988 171.87155692 -234.81901619 170.23696925 -236 167 C-237.6264647 164.60722706 -237.6264647 164.60722706 -239.6875 162.3125 C-243.69983076 157.48191217 -247.00443794 152.51380928 -250 147 C-250.4782019 146.12782837 -250.4782019 146.12782837 -250.96606445 145.23803711 C-253.60151741 140.23929394 -255.26496268 135.26937145 -256.6875 129.8125 C-256.89955078 129.03197266 -257.11160156 128.25144531 -257.33007812 127.44726562 C-259.65334887 118.80645738 -260.21396016 110.96490904 -260.25 102 C-260.270625 100.74832031 -260.29125 99.49664062 -260.3125 98.20703125 C-260.34770845 89.71299283 -259.29061499 82.16906063 -257 74 C-256.65606201 72.66811646 -256.65606201 72.66811646 -256.30517578 71.30932617 C-254.63969138 65.21771947 -252.13103886 59.85065268 -249.125 54.3125 C-248.70347656 53.51005859 -248.28195313 52.70761719 -247.84765625 51.88085938 C-245.22617002 46.97058317 -242.45395847 42.37306268 -239 38 C-238.34 38 -237.68 38 -237 38 C-236.773125 37.443125 -236.54625 36.88625 -236.3125 36.3125 C-234.6296426 33.34746553 -232.46378626 31.34646311 -230 29 C-229.278125 28.236875 -228.55625 27.47375 -227.8125 26.6875 C-226 25 -226 25 -224 25 C-224 24.34 -224 23.68 -224 23 C-223.34 23 -222.68 23 -222 23 C-222 22.34 -222 21.68 -222 21 C-207.54517921 9.66889048 -187.79840788 0.95809644 -169.3828125 0.76171875 C-168.64860077 0.753647 -167.91438904 0.74557526 -167.15792847 0.73725891 C-165.60303063 0.72346389 -164.04810309 0.71272136 -162.49316406 0.70483398 C-160.93219876 0.69340836 -159.37126954 0.67310915 -157.81054688 0.64331055 C-143.84462139 0.37736367 -131.57439144 2.4172484 -118.75 8.3125 C-118.09451172 8.60664795 -117.43902344 8.9007959 -116.76367188 9.20385742 C-110.89369883 11.91004123 -105.05504914 14.9409669 -100 19 C-100 19.66 -100 20.32 -100 21 C-99.401875 21.28875 -98.80375 21.5775 -98.1875 21.875 C-96 23 -96 23 -93 25 C-93 25.66 -93 26.32 -93 27 C-92.34 27 -91.68 27 -91 27 C-91 27.66 -91 28.32 -91 29 C-90.4225 29.226875 -89.845 29.45375 -89.25 29.6875 C-86.44661024 31.32281069 -84.99557846 33.47226728 -83 36 C-82.34 36 -81.68 36 -81 36 C-79.49339338 34.43752272 -79.49339338 34.43752272 -78 32.5 C-76.4375 30.53125 -76.4375 30.53125 -75 29 C-74.34 29 -73.68 29 -73 29 C-73 28.34 -73 27.68 -73 27 C-68.52941176 23 -68.52941176 23 -66 23 C-66 22.34 -66 21.68 -66 21 C-60.58823529 17 -60.58823529 17 -58 17 C-58 16.34 -58 15.68 -58 15 C-39.5757377 5.24313048 -21.197131 -1.38307521 0 0 Z M-186 44 C-186 44.66 -186 45.32 -186 46 C-187.98 46.99 -187.98 46.99 -190 48 C-190 48.66 -190 49.32 -190 50 C-190.66 50 -191.32 50 -192 50 C-197.73713772 59.35887895 -197.73713772 59.35887895 -199 70 C-197.00896808 72.43835668 -197.00896808 72.43835668 -193.0859375 72.1953125 C-191.51550649 72.18200376 -189.94513779 72.15813602 -188.375 72.125 C-187.17230469 72.11146484 -187.17230469 72.11146484 -185.9453125 72.09765625 C-183.96341477 72.07406223 -181.98167019 72.03819065 -180 72 C-179.78085938 71.40832031 -179.56171875 70.81664062 -179.3359375 70.20703125 C-177.07718737 64.57851975 -175.03067669 61.42514158 -170 58 C-166.57008462 56.85669487 -163.8013584 56.79618349 -160.1875 56.75 C-158.98480469 56.72421875 -157.78210938 56.6984375 -156.54296875 56.671875 C-151.78567756 57.11246206 -148.59749536 58.46962629 -145.140625 61.78125 C-143.590515 64.79653246 -143.67262134 67.12629023 -143.75 70.5 C-143.76546875 71.6240625 -143.7809375 72.748125 -143.796875 73.90625 C-143.96320474 76.43957988 -144.26578473 78.58419493 -145 81 C-145.66 81 -146.32 81 -147 81 C-148.46641754 82.45004243 -148.46641754 82.45004243 -150 84.375 C-152.86210746 87.77599798 -155.8921984 90.82555132 -159.125 93.875 C-166.30985103 100.98341644 -170.69348754 109.66540906 -171.1875 119.875 C-171.35483035 122.86633204 -171.35483035 122.86633204 -170 124 C-168.65732587 124.08631874 -167.31025678 124.10706473 -165.96484375 124.09765625 C-165.15595703 124.09443359 -164.34707031 124.09121094 -163.51367188 124.08789062 C-162.2384668 124.07532227 -162.2384668 124.07532227 -160.9375 124.0625 C-160.08349609 124.05798828 -159.22949219 124.05347656 -158.34960938 124.04882812 C-156.23304337 124.03700373 -154.11651315 124.01906769 -152 124 C-151.81824219 123.25234375 -151.63648438 122.5046875 -151.44921875 121.734375 C-151.19785156 120.74953125 -150.94648438 119.7646875 -150.6875 118.75 C-150.44386719 117.77546875 -150.20023438 116.8009375 -149.94921875 115.796875 C-148.99969888 112.99911276 -147.81191444 111.29407655 -146 109 C-146 108.34 -146 107.68 -146 107 C-145.34 107 -144.68 107 -144 107 C-144 106.34 -144 105.68 -144 105 C-143.34 105 -142.68 105 -142 105 C-142 104.34 -142 103.68 -142 103 C-141.34 103 -140.68 103 -140 103 C-140 102.34 -140 101.68 -140 101 C-139.443125 100.773125 -138.88625 100.54625 -138.3125 100.3125 C-135.33840412 98.62449964 -133.27991135 96.53323483 -131 94 C-131 93.34 -131 92.68 -131 92 C-130.34 92 -129.68 92 -129 92 C-128.20168544 90.62884903 -127.4116939 89.25285116 -126.625 87.875 C-125.96371094 86.72644531 -125.96371094 86.72644531 -125.2890625 85.5546875 C-120.97017462 76.99543697 -120.70391326 67.75902097 -123.25 58.5625 C-124.63614252 54.53546036 -126.30637065 51.30186823 -129 48 C-129.66 48 -130.32 48 -131 48 C-131 47.34 -131 46.68 -131 46 C-131.66 46 -132.32 46 -133 46 C-133 45.34 -133 44.68 -133 44 C-151.10201061 33.24030024 -167.57899007 33.89042188 -186 44 Z M-16.77563477 45.90063477 C-18.05962398 48.10223462 -18.77773455 50.04124678 -19.4375 52.5 C-21.09782143 58.40239924 -23.04200778 64.19080985 -25 70 C-25.22107422 70.67409912 -25.44214844 71.34819824 -25.66992188 72.04272461 C-27.48446295 77.55914607 -29.4604134 83.00081693 -31.5 88.4375 C-33.63728446 94.17325092 -35.71534727 99.87744264 -37.296875 105.796875 C-38 108 -38 108 -39.39111328 111.21386719 C-41.69440331 116.54899314 -43.54724649 122.04439753 -45.44384766 127.53369141 C-46.12410751 129.49742362 -46.81385042 131.45766089 -47.50390625 133.41796875 C-47.94329481 134.68469255 -48.3821161 135.9516133 -48.8203125 137.21875 C-49.21492676 138.35248047 -49.60954102 139.48621094 -50.01611328 140.65429688 C-51.03385095 144.11511001 -51.65545493 147.41047701 -52 151 C-49.74998901 153.25001099 -44.64505121 152.27948195 -41.625 152.3125 C-40.7484375 152.34150391 -39.871875 152.37050781 -38.96875 152.40039062 C-34.16140321 152.57490962 -34.16140321 152.57490962 -30.0625 150.4609375 C-28.6271162 147.13633532 -27.4406217 143.76919262 -26.375 140.3125 C-24.1116985 133.1116985 -24.1116985 133.1116985 -23 132 C-20.04294679 131.91131701 -17.10934944 131.88479704 -14.15234375 131.90234375 C-12.82270348 131.90446617 -12.82270348 131.90446617 -11.46620178 131.90663147 C-8.62326746 131.91224785 -5.78041069 131.92480309 -2.9375 131.9375 C-1.01497509 131.94251289 0.90755104 131.94707616 2.83007812 131.95117188 C7.55341549 131.96222259 12.27669458 131.97949817 17 132 C17.7727205 133.83253872 18.54306961 135.66607742 19.3125 137.5 C19.95638672 139.03140625 19.95638672 139.03140625 20.61328125 140.59375 C22.14926487 144.36664499 23.56967366 148.18579643 25 152 C31.6 152 38.2 152 45 152 C46.14344375 147.426225 45.27522525 144.93874938 43.75 140.6875 C43.53214844 140.04876953 43.31429687 139.41003906 43.08984375 138.75195312 C42.02219853 135.67076649 40.8652103 132.69105743 39.55957031 129.69848633 C38.04673072 126.19181112 36.81164018 122.63159681 35.625 119 C35.30909912 118.0409375 35.30909912 118.0409375 34.98681641 117.0625 C34.09790871 114.36348895 33.21626715 111.66211995 32.33398438 108.9609375 C31.68352889 106.97311483 31.02933897 104.98654707 30.375 103 C29.99085938 101.824375 29.60671875 100.64875 29.2109375 99.4375 C27.95451957 95.87089426 26.50645328 92.46710325 25 89 C23.70958087 85.25463716 22.49647934 81.48907694 21.28125 77.71875 C20.05906951 74.0183673 20.05906951 74.0183673 18.53125 70.6015625 C16.4342867 65.66941923 14.86034571 60.60390904 13.25 55.49609375 C12.5431174 53.31285738 11.77929979 51.15820388 11 49 C10.6803125 48.00355469 10.360625 47.00710937 10.03125 45.98046875 C6.9437785 42.97018404 3.8958101 43.37321807 -0.29296875 43.36523438 C-1.88044922 43.40100586 -1.88044922 43.40100586 -3.5 43.4375 C-4.55832031 43.42654297 -5.61664063 43.41558594 -6.70703125 43.40429688 C-12.32045479 43.10831021 -12.32045479 43.10831021 -16.77563477 45.90063477 Z M-171 141 C-173.54566951 145.20394014 -173.70219646 149.20451197 -173 154 C-170.93240751 157.47060168 -168.89055567 159.77725393 -165 161 C-160.67864101 161.480151 -158.5331633 161.29173086 -154.6875 159.1875 C-151.98348579 156.9865582 -150.18070318 155.44296805 -149.734375 151.87890625 C-149.73953125 151.11449219 -149.7446875 150.35007812 -149.75 149.5625 C-149.74484375 148.80066406 -149.7396875 148.03882813 -149.734375 147.25390625 C-150.0320365 144.72816086 -150.64821526 143.1472227 -152 141 C-158.08374451 136.94417032 -165.08195906 136.12631922 -171 141 Z " fill="#61A172" transform="translate(332,124)"/>
<path d="M0 0 C0.73421173 -0.00807175 1.46842346 -0.01614349 2.22488403 -0.02445984 C3.77978187 -0.03825486 5.33470941 -0.04899739 6.88964844 -0.05688477 C8.45061374 -0.06831039 10.01154296 -0.0886096 11.57226562 -0.1184082 C25.53819111 -0.38435508 37.80842106 1.65552965 50.6328125 7.55078125 C51.61604492 7.99200317 51.61604492 7.99200317 52.61914062 8.44213867 C58.48911367 11.14832248 64.32776336 14.17924815 69.3828125 18.23828125 C69.3828125 18.89828125 69.3828125 19.55828125 69.3828125 20.23828125 C69.9809375 20.52703125 70.5790625 20.81578125 71.1953125 21.11328125 C73.3828125 22.23828125 73.3828125 22.23828125 76.3828125 24.23828125 C76.3828125 24.89828125 76.3828125 25.55828125 76.3828125 26.23828125 C77.0428125 26.23828125 77.7028125 26.23828125 78.3828125 26.23828125 C78.3828125 26.89828125 78.3828125 27.55828125 78.3828125 28.23828125 C78.9603125 28.46515625 79.5378125 28.69203125 80.1328125 28.92578125 C82.94708863 30.56744232 84.41018983 32.67387178 86.3828125 35.23828125 C87.0428125 35.56828125 87.7028125 35.89828125 88.3828125 36.23828125 C88.3828125 36.89828125 88.3828125 37.55828125 88.3828125 38.23828125 C87.7228125 38.23828125 87.0628125 38.23828125 86.3828125 38.23828125 C86.14175781 38.90988281 85.90070313 39.58148438 85.65234375 40.2734375 C84.38444347 43.2344723 82.89532363 45.88692995 81.26025391 48.65380859 C70.79388126 66.43848201 67.16113539 83.9787209 67.0703125 104.42578125 C67.06197388 106.02063354 67.06197388 106.02063354 67.0534668 107.64770508 C67.10521554 113.2113584 67.54522628 117.93043328 69.3828125 123.23828125 C69.65480469 124.22828125 69.92679688 125.21828125 70.20703125 126.23828125 C73.80195425 138.73104534 79.02249439 152.87796314 88.3828125 162.23828125 C87.7228125 162.23828125 87.0628125 162.23828125 86.3828125 162.23828125 C86.3828125 163.55828125 86.3828125 164.87828125 86.3828125 166.23828125 C85.7228125 166.23828125 85.0628125 166.23828125 84.3828125 166.23828125 C84.1765625 166.77453125 83.9703125 167.31078125 83.7578125 167.86328125 C81.85030824 171.15806134 79.33461866 173.83191753 76.3828125 176.23828125 C75.7228125 176.23828125 75.0628125 176.23828125 74.3828125 176.23828125 C74.3828125 176.89828125 74.3828125 177.55828125 74.3828125 178.23828125 C73.04101562 179.41162109 73.04101562 179.41162109 71.1640625 180.69921875 C70.47828125 181.17101562 69.7925 181.6428125 69.0859375 182.12890625 C68.35890625 182.61875 67.631875 183.10859375 66.8828125 183.61328125 C66.18671875 184.09539062 65.490625 184.5775 64.7734375 185.07421875 C57.75184723 189.85930249 50.70627432 193.41236412 42.5703125 195.86328125 C41.87091553 196.0756543 41.17151855 196.28802734 40.45092773 196.50683594 C34.80385497 198.1824481 29.24271106 199.54383255 23.3828125 200.23828125 C21.54396484 200.45677734 21.54396484 200.45677734 19.66796875 200.6796875 C6.45765741 201.9703501 -7.18045026 200.75432315 -19.80859375 196.56640625 C-27.86521743 194.08641916 -33.66217828 196.86768959 -40.8671875 200.42578125 C-41.70258057 200.82853271 -42.53797363 201.23128418 -43.39868164 201.64624023 C-48.88375833 204.31303253 -54.23947656 207.13334491 -59.48828125 210.2421875 C-61.6171875 211.23828125 -61.6171875 211.23828125 -65.6171875 211.23828125 C-65.6171875 211.89828125 -65.6171875 212.55828125 -65.6171875 213.23828125 C-73.3671875 214.36328125 -73.3671875 214.36328125 -75.6171875 213.23828125 C-77.661283 208.18875821 -75.50401697 203.36084677 -73.9921875 198.42578125 C-73.71947021 197.49958984 -73.44675293 196.57339844 -73.16577148 195.61914062 C-71.86054321 191.21763977 -70.49927168 186.83814189 -69.06640625 182.4765625 C-68.71473389 181.39628784 -68.71473389 181.39628784 -68.35595703 180.29418945 C-67.71791852 178.3545063 -67.06072824 176.42115314 -66.40234375 174.48828125 C-65.58615738 171.10983817 -65.43620369 169.4752505 -66.6171875 166.23828125 C-68.2436522 163.84550831 -68.2436522 163.84550831 -70.3046875 161.55078125 C-74.31701826 156.72019342 -77.62162544 151.75209053 -80.6171875 146.23828125 C-81.0953894 145.36610962 -81.0953894 145.36610962 -81.58325195 144.47631836 C-84.21870491 139.47757519 -85.88215018 134.5076527 -87.3046875 129.05078125 C-87.51673828 128.27025391 -87.72878906 127.48972656 -87.94726562 126.68554688 C-90.27053637 118.04473863 -90.83114766 110.20319029 -90.8671875 101.23828125 C-90.8878125 99.98660156 -90.9084375 98.73492187 -90.9296875 97.4453125 C-90.96489595 88.95127408 -89.90780249 81.40734188 -87.6171875 73.23828125 C-87.27324951 71.90639771 -87.27324951 71.90639771 -86.92236328 70.54760742 C-85.25687888 64.45600072 -82.74822636 59.08893393 -79.7421875 53.55078125 C-79.32066406 52.74833984 -78.89914063 51.94589844 -78.46484375 51.11914062 C-75.84335752 46.20886442 -73.07114597 41.61134393 -69.6171875 37.23828125 C-68.9571875 37.23828125 -68.2971875 37.23828125 -67.6171875 37.23828125 C-67.3903125 36.68140625 -67.1634375 36.12453125 -66.9296875 35.55078125 C-65.2468301 32.58574678 -63.08097376 30.58474436 -60.6171875 28.23828125 C-59.8953125 27.47515625 -59.1734375 26.71203125 -58.4296875 25.92578125 C-56.6171875 24.23828125 -56.6171875 24.23828125 -54.6171875 24.23828125 C-54.6171875 23.57828125 -54.6171875 22.91828125 -54.6171875 22.23828125 C-53.9571875 22.23828125 -53.2971875 22.23828125 -52.6171875 22.23828125 C-52.6171875 21.57828125 -52.6171875 20.91828125 -52.6171875 20.23828125 C-38.16236671 8.90717173 -18.41559538 0.19637769 0 0 Z M-16.6171875 43.23828125 C-16.6171875 43.89828125 -16.6171875 44.55828125 -16.6171875 45.23828125 C-18.5971875 46.22828125 -18.5971875 46.22828125 -20.6171875 47.23828125 C-20.6171875 47.89828125 -20.6171875 48.55828125 -20.6171875 49.23828125 C-21.2771875 49.23828125 -21.9371875 49.23828125 -22.6171875 49.23828125 C-28.35432522 58.5971602 -28.35432522 58.5971602 -29.6171875 69.23828125 C-27.62615558 71.67663793 -27.62615558 71.67663793 -23.703125 71.43359375 C-22.13269399 71.42028501 -20.56232529 71.39641727 -18.9921875 71.36328125 C-17.78949219 71.34974609 -17.78949219 71.34974609 -16.5625 71.3359375 C-14.58060227 71.31234348 -12.59885769 71.2764719 -10.6171875 71.23828125 C-10.39804688 70.64660156 -10.17890625 70.05492187 -9.953125 69.4453125 C-7.69437487 63.816801 -5.64786419 60.66342283 -0.6171875 57.23828125 C2.81272788 56.09497612 5.5814541 56.03446474 9.1953125 55.98828125 C10.39800781 55.9625 11.60070312 55.93671875 12.83984375 55.91015625 C17.59713494 56.35074331 20.78531714 57.70790754 24.2421875 61.01953125 C25.7922975 64.03481371 25.71019116 66.36457148 25.6328125 69.73828125 C25.61734375 70.86234375 25.601875 71.98640625 25.5859375 73.14453125 C25.41960776 75.67786113 25.11702777 77.82247618 24.3828125 80.23828125 C23.7228125 80.23828125 23.0628125 80.23828125 22.3828125 80.23828125 C20.91639496 81.68832368 20.91639496 81.68832368 19.3828125 83.61328125 C16.52070504 87.01427923 13.4906141 90.06383257 10.2578125 93.11328125 C3.07296147 100.22169769 -1.31067504 108.90369031 -1.8046875 119.11328125 C-1.97201785 122.10461329 -1.97201785 122.10461329 -0.6171875 123.23828125 C0.72548663 123.32459999 2.07255572 123.34534598 3.41796875 123.3359375 C4.22685547 123.33271484 5.03574219 123.32949219 5.86914062 123.32617188 C7.1443457 123.31360352 7.1443457 123.31360352 8.4453125 123.30078125 C9.29931641 123.29626953 10.15332031 123.29175781 11.03320312 123.28710938 C13.14976913 123.27528498 15.26629935 123.25734894 17.3828125 123.23828125 C17.56457031 122.490625 17.74632812 121.74296875 17.93359375 120.97265625 C18.18496094 119.9878125 18.43632812 119.00296875 18.6953125 117.98828125 C18.93894531 117.01375 19.18257812 116.03921875 19.43359375 115.03515625 C20.38311362 112.23739401 21.57089806 110.5323578 23.3828125 108.23828125 C23.3828125 107.57828125 23.3828125 106.91828125 23.3828125 106.23828125 C24.0428125 106.23828125 24.7028125 106.23828125 25.3828125 106.23828125 C25.3828125 105.57828125 25.3828125 104.91828125 25.3828125 104.23828125 C26.0428125 104.23828125 26.7028125 104.23828125 27.3828125 104.23828125 C27.3828125 103.57828125 27.3828125 102.91828125 27.3828125 102.23828125 C28.0428125 102.23828125 28.7028125 102.23828125 29.3828125 102.23828125 C29.3828125 101.57828125 29.3828125 100.91828125 29.3828125 100.23828125 C29.9396875 100.01140625 30.4965625 99.78453125 31.0703125 99.55078125 C34.04440838 97.86278089 36.10290115 95.77151608 38.3828125 93.23828125 C38.3828125 92.57828125 38.3828125 91.91828125 38.3828125 91.23828125 C39.0428125 91.23828125 39.7028125 91.23828125 40.3828125 91.23828125 C41.18112706 89.86713028 41.9711186 88.49113241 42.7578125 87.11328125 C43.41910156 85.96472656 43.41910156 85.96472656 44.09375 84.79296875 C48.41263788 76.23371822 48.67889924 66.99730222 46.1328125 57.80078125 C44.74666998 53.77374161 43.07644185 50.54014948 40.3828125 47.23828125 C39.7228125 47.23828125 39.0628125 47.23828125 38.3828125 47.23828125 C38.3828125 46.57828125 38.3828125 45.91828125 38.3828125 45.23828125 C37.7228125 45.23828125 37.0628125 45.23828125 36.3828125 45.23828125 C36.3828125 44.57828125 36.3828125 43.91828125 36.3828125 43.23828125 C18.28080189 32.47858149 1.80382243 33.12870313 -16.6171875 43.23828125 Z M-1.6171875 140.23828125 C-4.16285701 144.44222139 -4.31938396 148.44279322 -3.6171875 153.23828125 C-1.54959501 156.70888293 0.49225683 159.01553518 4.3828125 160.23828125 C8.70417149 160.71843225 10.8496492 160.53001211 14.6953125 158.42578125 C17.39932671 156.22483945 19.20210932 154.6812493 19.6484375 151.1171875 C19.64328125 150.35277344 19.638125 149.58835937 19.6328125 148.80078125 C19.63796875 148.03894531 19.643125 147.27710938 19.6484375 146.4921875 C19.350776 143.96644211 18.73459724 142.38550395 17.3828125 140.23828125 C11.29906799 136.18245157 4.30085344 135.36460047 -1.6171875 140.23828125 Z " fill="#4686AF" transform="translate(162.6171875,124.76171875)"/>
<path d="M0 0 C13.65213903 12.07689222 19.71075048 33.57146831 22 51 C23.48169974 76.71765898 18.93433183 102.70897434 2 123 C-3.769874 121.07670867 -6.12832519 114.67920038 -8.8046875 109.5234375 C-12.70520315 101.56793033 -15.64939426 93.55575928 -18 85 C-18.35835937 83.96488281 -18.71671875 82.92976563 -19.0859375 81.86328125 C-20.3301923 76.60444365 -20.34106758 71.57412196 -20.3125 66.1875 C-20.30686035 65.07963135 -20.3012207 63.9717627 -20.29541016 62.83032227 C-19.97862046 41.13650088 -14.28791675 23.41206037 -3 5 C-1.9993387 3.33373029 -0.9990901 1.66721227 0 0 Z " fill="#245E66" transform="translate(249,163)"/>
<path d="M0 0 C3.03575233 2.51829455 3.86514385 5.02388896 5 8.75 C6.01624805 12.05280616 7.08537239 15.19828426 8.453125 18.375 C10.1203112 22.28194141 11.47395976 26.2029138 12.75 30.25 C12.98332031 30.95640625 13.21664063 31.6628125 13.45703125 32.390625 C15.11863763 37.6440871 15.11863763 37.6440871 14 41 C5.09 41 -3.82 41 -13 41 C-11.87441038 33.12087264 -11.87441038 33.12087264 -10.73046875 29.36328125 C-10.48329102 28.5439209 -10.23611328 27.72456055 -9.98144531 26.88037109 C-9.71944336 26.03297363 -9.45744141 25.18557617 -9.1875 24.3125 C-8.7848291 22.99499756 -8.7848291 22.99499756 -8.37402344 21.65087891 C-7.58997296 19.09825467 -6.79687182 16.54864707 -6 14 C-5.78875488 13.31953613 -5.57750977 12.63907227 -5.35986328 11.93798828 C-2.37280575 2.37280575 -2.37280575 2.37280575 0 0 Z " fill="#6BA67A" transform="translate(328,195)"/>
<path d="M0 0 C3.08110503 2.54411244 3.94391285 5.17569094 5.125 8.9375 C5.45757812 9.97777344 5.79015625 11.01804688 6.1328125 12.08984375 C6.81683376 14.38532049 7.44971975 16.66973161 8 19 C6.35 18.67 4.7 18.34 3 18 C3 17.34 3 16.68 3 16 C3.66 16 4.32 16 5 16 C4.34 15.34 3.68 14.68 3 14 C0.39719432 14.32041397 0.39719432 14.32041397 -2 15 C-2 14.01 -2 13.02 -2 12 C-2.66 12 -3.32 12 -4 12 C-4.39279523 7.54832067 -3.1861177 4.84756715 -1 1 C-0.67 0.67 -0.34 0.34 0 0 Z " fill="#71A87F" transform="translate(328,195)"/>
<path d="M0 0 C5.28 0.99 10.56 1.98 16 3 C16 3.33 16 3.66 16 4 C6.86533168 4.6888091 -1.88651147 5.30192693 -11 4 C-11 3.34 -11 2.68 -11 2 C-7.37 2 -3.74 2 0 2 C0 1.34 0 0.68 0 0 Z " fill="#5486A7" transform="translate(170,321)"/>
<path d="M0 0 C2.12109375 0.3984375 2.12109375 0.3984375 4 1 C3.0479279 2.00596297 2.08812654 3.00461563 1.125 4 C0.59132813 4.556875 0.05765625 5.11375 -0.4921875 5.6875 C-2 7 -2 7 -4 7 C-4 7.66 -4 8.32 -4 9 C-6.3125 11.625 -6.3125 11.625 -9 14 C-9.99 14 -10.98 14 -12 14 C-12.33 14.99 -12.66 15.98 -13 17 C-13.66 16.67 -14.32 16.34 -15 16 C-14.34 15.01 -13.68 14.02 -13 13 C-12.34 13 -11.68 13 -11 13 C-10.773125 12.443125 -10.54625 11.88625 -10.3125 11.3125 C-8.6296426 8.34746553 -6.46378626 6.34646311 -4 4 C-3.319375 3.21625 -2.63875 2.4325 -1.9375 1.625 C-1.298125 1.08875 -0.65875 0.5525 0 0 Z " fill="#5D8EAE" transform="translate(106,149)"/>
<path d="M0 0 C1.98 0.99 3.96 1.98 6 3 C6 3.66 6 4.32 6 5 C6.99 5.33 7.98 5.66 9 6 C8.67 6.66 8.34 7.32 8 8 C8.33 8.99 8.66 9.98 9 11 C8.01 11.33 7.02 11.66 6 12 C3 10 3 10 2 8 C1.67 8 1.34 8 1 8 C0.67 5.36 0.34 2.72 0 0 Z " fill="#4187B7" transform="translate(226,140)"/>
<path d="M0 0 C2.8992226 0.46761655 3.86675182 0.86675182 6 3 C5.34 3 4.68 3 4 3 C4 4.32 4 5.64 4 7 C3.34 7 2.68 7 2 7 C1.71125 7.639375 1.4225 8.27875 1.125 8.9375 C0 11 0 11 -2 12 C-1.85962479 10.18706911 -1.71255111 8.3746557 -1.5625 6.5625 C-1.48128906 5.55316406 -1.40007812 4.54382813 -1.31640625 3.50390625 C-1 1 -1 1 0 0 Z " fill="#5A8FAF" transform="translate(245,284)"/>
<path d="M0 0 C3.26739717 1.63369858 3.71704704 4.70894675 5 8 C6.16517086 11.59649405 6.10013886 14.98611361 6.0625 18.75 C6.05347656 19.92046875 6.04445313 21.0909375 6.03515625 22.296875 C6.02355469 23.18890625 6.01195312 24.0809375 6 25 C5.67 25 5.34 25 5 25 C3.33333333 16.66666667 1.66666667 8.33333333 0 0 Z " fill="#5C9C7A" transform="translate(265,189)"/>
<path d="M0 0 C-0.99 0.66 -1.98 1.32 -3 2 C-4.82843748 1.55982061 -6.65480836 1.10628222 -8.4609375 0.58203125 C-13.54691139 -0.58383046 -18.80273782 -0.69893908 -24 -1 C-24 -1.33 -24 -1.66 -24 -2 C-15.46503307 -4.06908289 -8.28083943 -2.2843695 0 0 Z " fill="#739BB4" transform="translate(202,128)"/>
<path d="M0 0 C2.64 0 5.28 0 8 0 C8.33 0.99 8.66 1.98 9 3 C9.99 3.33 10.98 3.66 12 4 C9.35261084 5.4606285 8.10551666 6 5 6 C5 5.34 5 4.68 5 4 C3.68 4 2.36 4 1 4 C0.67 2.68 0.34 1.36 0 0 Z " fill="#5991B3" transform="translate(97,328)"/>
<path d="M0 0 C1.65 0.33 3.3 0.66 5 1 C3.35 4.63 1.7 8.26 0 12 C-1.9451 9.08235 -2.45276317 7.37462715 -3 4 C-2.34 3.67 -1.68 3.34 -1 3 C-0.67 2.01 -0.34 1.02 0 0 Z " fill="#5E98BB" transform="translate(164,221)"/>
<path d="M0 0 C2.56687367 3.8503105 1.83288724 5.58569763 1 10 C1.66 10 2.32 10 3 10 C2.67 11.32 2.34 12.64 2 14 C2.66 14.33 3.32 14.66 4 15 C3.01 15 2.02 15 1 15 C0.49307308 13.4188708 -0.00526443 11.83498617 -0.5 10.25 C-0.7784375 9.36828125 -1.056875 8.4865625 -1.34375 7.578125 C-2 5 -2 5 -2 1 C-1.34 0.67 -0.68 0.34 0 0 Z " fill="#84AF8E" transform="translate(349,182)"/>
<path d="M0 0 C1.32 0.33 2.64 0.66 4 1 C2.25877451 2.03572896 0.50663405 3.0531252 -1.25 4.0625 C-2.71179688 4.91521484 -2.71179688 4.91521484 -4.203125 5.78515625 C-7 7 -7 7 -9.359375 6.68359375 C-9.90078125 6.45800781 -10.4421875 6.23242188 -11 6 C-10.34 5.67 -9.68 5.34 -9 5 C-9 4.34 -9 3.68 -9 3 C-6.04335481 1.5216774 -3.25770263 1.93967217 0 2 C0 1.34 0 0.68 0 0 Z " fill="#7AA4BE" transform="translate(220,311)"/>
<path d="M0 0 C0.66 0 1.32 0 2 0 C2 0.66 2 1.32 2 2 C2.66 2 3.32 2 4 2 C4 2.66 4 3.32 4 4 C4.66 4 5.32 4 6 4 C8.29648649 6.5614657 9 7.47967572 9 11 C8.01 11 7.02 11 6 11 C4.39453125 9.1015625 4.39453125 9.1015625 2.8125 6.625 C2.01779297 5.40683594 2.01779297 5.40683594 1.20703125 4.1640625 C0 2 0 2 0 0 Z " fill="#6998B1" transform="translate(84,273)"/>
<path d="M0 0 C2 3 2 3 1.75 5.875 C1.06189923 8.74208654 0.1882053 11.30673466 -1 14 C-3.1519437 10.77208445 -3.20086443 9.71599191 -3 6 C-2.34 6 -1.68 6 -1 6 C-1.0309375 4.7934375 -1.0309375 4.7934375 -1.0625 3.5625 C-1 1 -1 1 0 0 Z " fill="#85B491" transform="translate(301,202)"/>
<path d="M0 0 C1 2 1 2 0.44140625 4.1640625 C0.15136719 4.97617188 -0.13867188 5.78828125 -0.4375 6.625 C-0.72496094 7.44226563 -1.01242188 8.25953125 -1.30859375 9.1015625 C-1.65083984 10.04128906 -1.65083984 10.04128906 -2 11 C-2.66 11 -3.32 11 -4 11 C-4 11.66 -4 12.32 -4 13 C-4.66 13 -5.32 13 -6 13 C-4.58707905 8.1725201 -2.57025846 4.2837641 0 0 Z " fill="#739AB3" transform="translate(86,173)"/>
<path d="M0 0 C4.29 0 8.58 0 13 0 C13.66 1.32 14.32 2.64 15 4 C14.01 4.495 14.01 4.495 13 5 C12.46375 4.71125 11.9275 4.4225 11.375 4.125 C8.99318593 2.99677228 7.4035237 2.75029567 4.8125 2.5 C2.9253125 2.2525 2.9253125 2.2525 1 2 C0.67 1.34 0.34 0.68 0 0 Z " fill="#77A2B9" transform="translate(165,260)"/>
<path d="M0 0 C0.33 0 0.66 0 1 0 C1 2.97 1 5.94 1 9 C-1.31 9.33 -3.62 9.66 -6 10 C-5.67 8.68 -5.34 7.36 -5 6 C-3.02 6.495 -3.02 6.495 -1 7 C-0.67 4.69 -0.34 2.38 0 0 Z " fill="#88B393" transform="translate(412,329)"/>
<path d="M0 0 C1.76462683 3.08809695 2 4.23312136 2 8 C1.34 8 0.68 8 0 8 C-0.66 9.65 -1.32 11.3 -2 13 C-3.18414294 9.44757118 -2.69535532 8.30169438 -1.5625 4.8125 C-1.27503906 3.91144531 -0.98757812 3.01039063 -0.69140625 2.08203125 C-0.46324219 1.39496094 -0.23507813 0.70789063 0 0 Z " fill="#6F9CB9" transform="translate(91,315)"/>
<path d="M0 0 C2.0625 0.4375 2.0625 0.4375 4 1 C3.74438677 3.3431213 3.40729228 5.67843403 3 8 C2.01 8.495 2.01 8.495 1 9 C0.01 8.34 -0.98 7.68 -2 7 C-2 6.34 -2 5.68 -2 5 C-1.34 5 -0.68 5 0 5 C-0.2784375 4.0409375 -0.2784375 4.0409375 -0.5625 3.0625 C-0.7790625 2.0415625 -0.7790625 2.0415625 -1 1 C-0.67 0.67 -0.34 0.34 0 0 Z " fill="#5890B5" transform="translate(140,312)"/>
<path d="M0 0 C0.66 0.99 1.32 1.98 2 3 C1.34 3 0.68 3 0 3 C-0.2502157 5.91634129 -0.2502157 5.91634129 0 9 C0.99 9.66 1.98 10.32 3 11 C1.02 11.33 -0.96 11.66 -3 12 C-2.40075776 7.80530429 -1.42500059 3.99000166 0 0 Z " fill="#7CA483" transform="translate(318,223)"/>
<path d="M0 0 C2.6015625 0.2421875 2.6015625 0.2421875 5.625 0.875 C6.62789062 1.07867187 7.63078125 1.28234375 8.6640625 1.4921875 C9.43492187 1.65976562 10.20578125 1.82734375 11 2 C11 2.33 11 2.66 11 3 C2.585 3.495 2.585 3.495 -6 4 C-4.68 3.34 -3.36 2.68 -2 2 C-1.34 1.34 -0.68 0.68 0 0 Z " fill="#8BACC4" transform="translate(175,322)"/>
<path d="M0 0 C1.80125336 2.70188004 3.00243753 4.93057703 4 8 C3.67 8.99 3.34 9.98 3 11 C1.68 10.67 0.36 10.34 -1 10 C-1 9.34 -1 8.68 -1 8 C-0.34 8 0.32 8 1 8 C0.649375 7.05125 0.29875 6.1025 -0.0625 5.125 C-1 2 -1 2 0 0 Z " fill="#83AD8D" transform="translate(332,203)"/>
<path d="M0 0 C2.34917898 2.15341406 3.82443004 4.21667937 5.25 7.0625 C5.60578125 7.75472656 5.9615625 8.44695312 6.328125 9.16015625 C6.54984375 9.76730469 6.7715625 10.37445313 7 11 C6.67 11.66 6.34 12.32 6 13 C1.90050429 8.69027374 0.36881356 6.14689273 0 0 Z " fill="#2A665B" transform="translate(256,173)"/>
<path d="M0 0 C1.98 0.99 3.96 1.98 6 3 C6 3.66 6 4.32 6 5 C6.99 5.33 7.98 5.66 9 6 C6.58716168 6.86172797 5.30534286 7.08724082 2.8125 6.375 C1 5 1 5 0.25 2.375 C0.1675 1.59125 0.085 0.8075 0 0 Z " fill="#72A0B6" transform="translate(226,140)"/>
<path d="M0 0 C0.66 0 1.32 0 2 0 C2 0.66 2 1.32 2 2 C2.99 2.33 3.98 2.66 5 3 C4.34 5.31 3.68 7.62 3 10 C2.34 9.67 1.68 9.34 1 9 C0.5859375 6.93359375 0.5859375 6.93359375 0.375 4.4375 C0.30023438 3.61121094 0.22546875 2.78492188 0.1484375 1.93359375 C0.09945313 1.29550781 0.05046875 0.65742188 0 0 Z " fill="#80AB88" transform="translate(376,266)"/>
<path d="M0 0 C6.75 -0.125 6.75 -0.125 9 1 C8.67 1.66 8.34 2.32 8 3 C7.01 3.33 6.02 3.66 5 4 C2.3125 2.625 2.3125 2.625 0 1 C0 0.67 0 0.34 0 0 Z " fill="#74A580" transform="translate(378,324)"/>
<path d="M0 0 C1.32 0 2.64 0 4 0 C6 3 6 3 6 5 C5.01 5 4.02 5 3 5 C2.67 5.66 2.34 6.32 2 7 C1.34 4.69 0.68 2.38 0 0 Z " fill="#7AAE89" transform="translate(353,202)"/>
<path d="M0 0 C0.33 0.66 0.66 1.32 1 2 C1.639375 2.28875 2.27875 2.5775 2.9375 2.875 C5.42001234 4.22909764 5.96871397 5.42178493 7 8 C6.01 8.495 6.01 8.495 5 9 C5 8.34 5 7.68 5 7 C4.34 7 3.68 7 3 7 C3 6.34 3 5.68 3 5 C2.01 4.67 1.02 4.34 0 4 C0 2.68 0 1.36 0 0 Z " fill="#80A5BC" transform="translate(240,151)"/>
<path d="M0 0 C0.75 1.6875 0.75 1.6875 1 4 C-0.9375 6.75 -0.9375 6.75 -3 9 C-3.99 8.67 -4.98 8.34 -6 8 C-5.34 7.01 -4.68 6.02 -4 5 C-3.34 5 -2.68 5 -2 5 C-1.34 3.35 -0.68 1.7 0 0 Z " fill="#7BA3BE" transform="translate(205,211)"/>
<path d="M0 0 C2 1 2 1 2.8125 2.875 C3 5 3 5 1.5625 6.75 C1.046875 7.1625 0.53125 7.575 0 8 C-0.66 6.02 -1.32 4.04 -2 2 C-1.34 1.34 -0.68 0.68 0 0 Z " fill="#77AE88" transform="translate(314,164)"/>
<path d="M0 0 C1.32 0.66 2.64 1.32 4 2 C3 4 3 4 -0.0625 5.125 C-1.031875 5.41375 -2.00125 5.7025 -3 6 C-2.67 4.68 -2.34 3.36 -2 2 C-1.34 2 -0.68 2 0 2 C0 1.34 0 0.68 0 0 Z " fill="#709CBA" transform="translate(116,323)"/>
<path d="M0 0 C0.33 0.99 0.66 1.98 1 3 C1.99 3.33 2.98 3.66 4 4 C3.34 4.66 2.68 5.32 2 6 C0.68 6 -0.64 6 -2 6 C-2.33 4.35 -2.66 2.7 -3 1 C-2.01 1.495 -2.01 1.495 -1 2 C-0.67 1.34 -0.34 0.68 0 0 Z " fill="#75A882" transform="translate(363,313)"/>
<path d="M0 0 C0.99 0 1.98 0 3 0 C2.34 1.32 1.68 2.64 1 4 C0.01 4 -0.98 4 -2 4 C-2.33 4.99 -2.66 5.98 -3 7 C-3.66 6.67 -4.32 6.34 -5 6 C-4.34 5.01 -3.68 4.02 -3 3 C-2.34 3 -1.68 3 -1 3 C-0.67 2.01 -0.34 1.02 0 0 Z " fill="#79A2B9" transform="translate(96,159)"/>
<path d="M0 0 C0.99 0.33 1.98 0.66 3 1 C1.68 3.31 0.36 5.62 -1 8 C-1.66 6.68 -2.32 5.36 -3 4 C-2.34 3.67 -1.68 3.34 -1 3 C-0.67 2.01 -0.34 1.02 0 0 Z " fill="#86AE90" transform="translate(410,277)"/>
<path d="M0 0 C0.66 1.32 1.32 2.64 2 4 C1.01 4.99 0.02 5.98 -1 7 C-1.99 6.67 -2.98 6.34 -4 6 C-2.68 4.02 -1.36 2.04 0 0 Z " fill="#5B9B78" transform="translate(257,276)"/>
<path d="M0 0 C0.625 1.875 0.625 1.875 1 4 C0.34 4.66 -0.32 5.32 -1 6 C-1.33 6.99 -1.66 7.98 -2 9 C-2.66 9 -3.32 9 -4 9 C-3.46930939 5.17902761 -2.50298434 2.93828597 0 0 Z " fill="#79A0B6" transform="translate(185,233)"/>
<path d="M0 0 C3 2 3 2 3.51171875 4.1640625 C3.56972656 4.97617188 3.62773437 5.78828125 3.6875 6.625 C3.75324219 7.44226563 3.81898438 8.25953125 3.88671875 9.1015625 C3.92410156 9.72804687 3.96148437 10.35453125 4 11 C1.6870518 8.6870518 1.50419025 7.52095125 0.875 4.375 C0.70742188 3.55773437 0.53984375 2.74046875 0.3671875 1.8984375 C0.24601562 1.27195313 0.12484375 0.64546875 0 0 Z " fill="#9BC1A3" transform="translate(363,230)"/>
<path d="M0 0 C0.33 1.32 0.66 2.64 1 4 C-0.32 4.99 -1.64 5.98 -3 7 C-3.66 6.67 -4.32 6.34 -5 6 C-5 5.34 -5 4.68 -5 4 C-3.37373596 2.61767557 -1.7074998 1.28062485 0 0 Z " fill="#7DA986" transform="translate(264,147)"/>
<path d="M0 0 C2.475 0.495 2.475 0.495 5 1 C4.34 2.32 3.68 3.64 3 5 C2.34 5 1.68 5 1 5 C0.67 3.35 0.34 1.7 0 0 Z " fill="#5B8BB2" transform="translate(164,221)"/>
<path d="M0 0 C1.32 0 2.64 0 4 0 C4 0.99 4 1.98 4 3 C4.66 3 5.32 3 6 3 C5.67 3.99 5.34 4.98 5 6 C3.0625 5.25 3.0625 5.25 1 4 C0.25 1.875 0.25 1.875 0 0 Z " fill="#5B9C6C" transform="translate(324,207)"/>
<path d="" fill="#FFFFFF" transform="translate(0,0)"/>
<path d="" fill="#FFFFFF" transform="translate(0,0)"/>
<path d="" fill="#FFFFFF" transform="translate(0,0)"/>
<path d="" fill="#FFFFFF" transform="translate(0,0)"/>
<path d="" fill="#FFFFFF" transform="translate(0,0)"/>
<path d="" fill="#FFFFFF" transform="translate(0,0)"/>
<path d="" fill="#FFFFFF" transform="translate(0,0)"/>
<path d="" fill="#FFFFFF" transform="translate(0,0)"/>
<path d="" fill="#FFFFFF" transform="translate(0,0)"/>
<path d="" fill="#FFFFFF" transform="translate(0,0)"/>
<path d="" fill="#FFFFFF" transform="translate(0,0)"/>
<path d="" fill="#FFFFFF" transform="translate(0,0)"/>
<path d="" fill="#FFFFFF" transform="translate(0,0)"/>
<path d="" fill="#FFFFFF" transform="translate(0,0)"/>
<path d="" fill="#FFFFFF" transform="translate(0,0)"/>
<path d="" fill="#FFFFFF" transform="translate(0,0)"/>
<path d="" fill="#FFFFFF" transform="translate(0,0)"/>
<path d="" fill="#FFFFFF" transform="translate(0,0)"/>
<path d="" fill="#FFFFFF" transform="translate(0,0)"/>
<path d="" fill="#FFFFFF" transform="translate(0,0)"/>
<path d="" fill="#FFFFFF" transform="translate(0,0)"/>
<path d="" fill="#FFFFFF" transform="translate(0,0)"/>
<path d="" fill="#FFFFFF" transform="translate(0,0)"/>
<path d="" fill="#FFFFFF" transform="translate(0,0)"/>
<path d="" fill="#FFFFFF" transform="translate(0,0)"/>
<path d="" fill="#FFFFFF" transform="translate(0,0)"/>
<path d="" fill="#FFFFFF" transform="translate(0,0)"/>
<path d="" fill="#FFFFFF" transform="translate(0,0)"/>
<path d="" fill="#FFFFFF" transform="translate(0,0)"/>
<path d="" fill="#FFFFFF" transform="translate(0,0)"/>
<path d="" fill="#FFFFFF" transform="translate(0,0)"/>
<path d="" fill="#FFFFFF" transform="translate(0,0)"/>
<path d="" fill="#FFFFFF" transform="translate(0,0)"/>
<path d="" fill="#FFFFFF" transform="translate(0,0)"/>
<path d="" fill="#FFFFFF" transform="translate(0,0)"/>
<path d="" fill="#FFFFFF" transform="translate(0,0)"/>
<path d="" fill="#FFFFFF" transform="translate(0,0)"/>
<path d="" fill="#FFFFFF" transform="translate(0,0)"/>
<path d="" fill="#FFFFFF" transform="translate(0,0)"/>
<path d="" fill="#FFFFFF" transform="translate(0,0)"/>
<path d="" fill="#FFFFFF" transform="translate(0,0)"/>
<path d="" fill="#FFFFFF" transform="translate(0,0)"/>
<path d="" fill="#FFFFFF" transform="translate(0,0)"/>
<path d="" fill="#FFFFFF" transform="translate(0,0)"/>
<path d="" fill="#FFFFFF" transform="translate(0,0)"/>
<path d="" fill="#FFFF00" transform="translate(0,0)"/>
<path d="" fill="#FFFFFF" transform="translate(0,0)"/>
<path d="" fill="#FFFFFF" transform="translate(0,0)"/>
<path d="" fill="#FFFFFF" transform="translate(0,0)"/>
<path d="" fill="#FFFFFF" transform="translate(0,0)"/>
<path d="" fill="#FFFFFF" transform="translate(0,0)"/>
<path d="" fill="#FFFFFF" transform="translate(0,0)"/>
<path d="" fill="#FFFFFF" transform="translate(0,0)"/>
<path d="" fill="#FFFFFF" transform="translate(0,0)"/>
<path d="" fill="#FFFFFF" transform="translate(0,0)"/>
<path d="" fill="#FFFFFF" transform="translate(0,0)"/>
<path d="" fill="#FFFFFF" transform="translate(0,0)"/>
</svg>
